<svg width="114" height="103" viewBox="0 0 114 103" fill="none" xmlns="http://www.w3.org/2000/svg">
<path d="M38.4121 0.75H68.835C69.1956 0.750097 69.5393 0.905411 69.7744 1.17383L112.943 50.4033L112.944 50.4043C113.353 50.8682 113.354 51.5658 112.943 52.0381L69.4609 101.484C69.2227 101.754 68.8797 101.911 68.5225 101.911H38.418C37.3433 101.911 36.7785 100.652 37.4775 99.8545L78.3867 53.21C79.292 52.1772 79.292 50.6353 78.3867 49.6025L37.4697 2.80762H37.4688C36.7705 2.00592 37.3379 0.750053 38.4121 0.75Z" fill="#F6E9D9" fill-opacity="0.01" stroke="#F6E9D9" stroke-width="1.5"/>
<path d="M28.7539 29.5552C29.8559 30.7358 30.9096 31.9237 32.0225 33.1177C33.5427 34.7487 35.1396 36.3509 37.0059 37.8071V37.8062C40.5825 40.5971 45.7243 43.6425 50.8359 44.7632C53.3982 45.3249 55.994 45.4122 58.3926 44.7036C60.5587 44.0637 62.5233 42.783 64.1338 40.6948C66.351 42.9827 68.7393 45.3174 70.5986 47.729V47.73C71.4976 48.8979 71.957 49.7158 72.0488 50.4927C72.1353 51.2249 71.907 52.0675 71.0332 53.3091L56.2002 70.564C50.2016 70.3854 43.8334 67.5577 38.8525 64.1646C38.0315 63.6055 37.2575 62.9568 36.4365 62.2896C35.787 61.7616 35.1101 61.2259 34.3936 60.7544C34.4369 60.6883 34.4852 60.6163 34.5391 60.5405C34.8186 60.147 35.1555 59.741 35.2832 59.5874C35.5397 59.2791 36.5826 58.1118 37.6143 56.9917C38.1278 56.4341 38.6317 55.8956 39.0264 55.4888C39.2244 55.2846 39.3906 55.1183 39.5137 55.0015C39.568 54.9499 39.6087 54.9122 39.6377 54.8872C39.6714 54.8721 39.694 54.8619 39.7139 54.854L39.7637 54.8638C39.852 54.886 40.0846 54.9929 40.4766 55.2231C40.8416 55.4376 41.2721 55.7145 41.7236 56.0103C42.5928 56.5796 43.5904 57.2543 44.1973 57.5522L44.1992 57.5532C47.4589 59.1433 52.0722 60.6613 56.1094 60.4937C58.1379 60.4093 60.0824 59.8966 61.627 58.689C63.1862 57.4697 64.2552 55.6064 64.6377 52.9897L64.8516 51.5298L63.5459 52.2173L58.7441 54.7466C56.5398 55.3604 53.8115 55.2315 51.0742 54.6284C48.4903 54.0591 45.9639 53.0827 43.9707 51.9956L43.5791 51.7769L43.1504 51.5239C42.2552 50.9734 42.0531 50.6945 41.9336 50.4663C41.8257 50.2601 41.7965 50.1355 41.6279 49.7495C41.4806 49.4123 41.2773 49.014 40.9238 48.5122L40.9229 48.5112L40.748 48.2749C40.2789 47.6616 39.3932 46.6289 38.334 45.4175C37.1129 44.021 35.6114 42.3314 34.1709 40.6909C32.7243 39.0436 31.3311 37.4366 30.3008 36.1802C29.7846 35.5508 29.3683 35.02 29.084 34.6206C28.941 34.4198 28.841 34.2659 28.7803 34.1577C28.7687 34.137 28.7609 34.1187 28.7539 34.105V29.5552Z" fill="#F6E9D9" fill-opacity="0.01" stroke="#F6E9D9" stroke-width="1.5"/>
<path d="M29.0195 15.2241C34.6579 21.8893 42.3921 28.9839 51.5205 30.2144C51.8892 30.2642 52.3051 30.2649 52.6973 30.2563C53.1152 30.2472 53.4907 30.2288 53.8887 30.2271C54.2766 30.2254 54.6173 30.2406 54.8994 30.2905C55.1469 30.3343 55.3008 30.3982 55.3936 30.4585L61.583 37.5015C61.6301 37.6491 61.6042 37.7936 61.4492 37.9995C61.2386 38.2793 60.8399 38.5829 60.291 38.8745C59.2027 39.4528 57.8221 39.8308 57.1826 39.9175C52.8146 40.5087 47.9289 39.0558 43.3574 36.5894C39.0825 34.2829 35.1599 31.1316 32.3115 28.0991L31.7568 27.4946C31.484 27.1899 30.8981 26.5407 30.3506 25.8999C30.0764 25.579 29.8171 25.2665 29.6152 25.0054C29.5143 24.8748 29.4322 24.7626 29.3711 24.6724C29.3047 24.5744 29.2833 24.5317 29.2832 24.5317L29.2822 24.5298L29.2393 24.4165C29.1419 24.1245 29.0635 23.6405 29.0166 22.9761C28.9649 22.2433 28.9566 21.3757 28.9688 20.4741C28.9895 18.9393 29.073 17.239 29.0791 16.1147L29.0771 15.6704C29.0747 15.5434 29.0478 15.3802 29.0195 15.2241Z" fill="#F6E9D9" fill-opacity="0.01" stroke="#F6E9D9" stroke-width="1.5"/>
<path d="M31.8604 63.7305C37.2102 69.2276 44.0632 73.816 51.9004 75.0078C50.9441 76.2817 49.9022 77.5629 48.8584 78.7568L48.293 79.3955C48.0067 79.7147 47.178 80.6688 46.3545 81.5469C45.9427 81.9859 45.5462 82.3904 45.2324 82.6768C45.1585 82.7442 45.0923 82.8009 45.0352 82.8486C41.314 80.7102 37.5937 78.7313 34.4248 75.9922V75.9912C33.7216 75.3841 32.3126 74.0459 31.0586 72.6543C30.4317 71.9586 29.8563 71.264 29.4297 70.6504C28.9781 70.0009 28.776 69.557 28.749 69.3359V69.335C28.649 68.518 28.7129 67.9087 28.8652 67.418C29.0176 66.9275 29.2723 66.5111 29.6162 66.0938C29.9719 65.6622 30.3923 65.2637 30.8916 64.7656C31.203 64.455 31.5305 64.114 31.8604 63.7305Z" fill="#F6E9D9" fill-opacity="0.01" stroke="#F6E9D9" stroke-width="1.5"/>
<path d="M22.6914 84.9141C17.6725 90.4759 11.4937 95.6471 4.29688 97.7666C3.98845 97.8575 2.9854 98.182 2.0498 98.3701C1.93321 98.3936 1.8219 98.4135 1.7168 98.4307L22.6914 74.8818V84.9141Z" fill="#F6E9D9" fill-opacity="0.01" stroke="#F6E9D9" stroke-width="1.5"/>
<path d="M28.707 1.64551C29.2192 1.62717 29.5661 1.75921 29.8701 1.95801C30.3588 2.27759 30.7422 2.75652 31.4248 3.46484C37.1078 9.36885 43.3516 16.2866 48.7256 22.6514L49.7881 23.916C49.9169 24.0703 50.2093 24.419 50.4893 24.7998C42.9471 22.7856 35.4197 17.1512 30.3906 11.2744C29.3137 10.0157 29.0395 9.11172 28.9834 8.15234C28.9533 7.63648 28.9863 7.09553 29.0244 6.4248C29.0619 5.76584 29.1015 5.00993 29.0703 4.12793C29.0492 3.53365 28.9002 2.91864 28.8115 2.4502C28.7562 2.15813 28.7165 1.89445 28.707 1.64551Z" fill="#F6E9D9" fill-opacity="0.01" stroke="#F6E9D9" stroke-width="1.5"/>
<path d="M28.7607 75.3994C32.2652 79.0849 35.899 82.798 40.2783 85.626C40.6186 85.8456 40.9965 85.9986 41.3018 86.1162C41.6391 86.2462 41.8672 86.3278 42.0439 86.4238C42.0648 86.4352 42.0818 86.4469 42.0967 86.4561C42.0961 86.4572 42.0963 86.4588 42.0957 86.46L42.001 86.6211C41.7352 87.0183 40.7358 88.188 39.6494 89.3994C38.5703 90.6028 37.5 91.742 37.1113 92.0859C37.0149 92.1704 36.9268 92.2629 36.8672 92.3242C36.799 92.3944 36.7556 92.437 36.7158 92.4707C36.7041 92.4806 36.6934 92.4874 36.6855 92.4932C36.6813 92.4915 36.6758 92.4903 36.6709 92.4883C36.6022 92.4594 36.5041 92.4091 36.375 92.3291C36.1164 92.1688 35.7879 91.9257 35.4043 91.6123C34.6401 90.988 33.7153 90.1321 32.7861 89.2207C31.0722 87.5395 29.4091 85.7331 28.7607 84.9375V75.3994Z" fill="#F6E9D9" fill-opacity="0.01" stroke="#F6E9D9" stroke-width="1.5"/>
<path d="M22.2061 1.67578C22.4074 1.62064 22.6629 1.59396 22.9971 1.62207V10.1973C22.9936 10.2077 22.988 10.2249 22.9775 10.249C22.9449 10.3241 22.8885 10.4315 22.7998 10.5713C22.623 10.8501 22.3562 11.2049 22.0137 11.6152C21.331 12.4331 20.3925 13.4173 19.3936 14.3672C18.394 15.3176 17.3501 16.218 16.46 16.8721C16.0138 17.1999 15.6209 17.4546 15.3018 17.623C15.1425 17.7071 15.014 17.7636 14.915 17.7969C14.8963 17.8032 14.8788 17.8054 14.8643 17.8096C14.8359 17.79 14.7977 17.7673 14.7549 17.7334C14.5857 17.5995 14.3637 17.3932 14.0967 17.1211C13.5652 16.5795 12.9142 15.839 12.25 15.0537C11.3419 13.9801 10.3847 12.7953 9.73047 12.0068C13.573 10.0316 16.5825 7.74892 19.5869 4.53516V4.53418C20.0162 4.07436 20.3519 3.59485 20.6377 3.18457C20.9353 2.75725 21.1664 2.42623 21.4238 2.16406C21.6663 1.91714 21.9079 1.75748 22.2061 1.67578Z" fill="#F6E9D9" fill-opacity="0.01" stroke="#F6E9D9" stroke-width="1.5"/>
<path d="M22.6904 100.119C22.6848 100.125 22.6798 100.132 22.6738 100.138C22.5533 100.268 22.3853 100.438 22.208 100.612C22.0313 100.785 21.8517 100.955 21.71 101.084C21.64 101.148 21.5832 101.197 21.543 101.231C21.2806 101.336 21.0129 101.33 20.6299 101.253C20.2772 101.183 19.6449 100.994 19.0576 100.981C17.1067 100.939 15.053 101.017 13.0488 101.069C11.3746 101.112 9.72925 101.136 8.16113 101.065C12.3671 99.1197 16.3983 96.6868 19.7217 93.3267C20.3642 92.6772 20.964 91.9103 21.5234 91.1704C21.9297 90.6331 22.313 90.115 22.6904 89.6392V100.119Z" fill="#F6E9D9" fill-opacity="0.01" stroke="#F6E9D9" stroke-width="1.5"/>
<path d="M16.5732 1.35059C14.1183 4.50906 10.4194 6.64123 6.55176 8.06445C6.52489 8.04564 6.49258 8.02332 6.45703 7.99512C6.27579 7.85125 6.04529 7.62734 5.77051 7.3291C5.2234 6.73529 4.57259 5.92321 3.9043 5.05859C3.25124 4.21368 2.55724 3.28804 1.98242 2.55176C1.74783 2.25127 1.51589 1.96151 1.29883 1.70215C2.88009 1.6119 4.53401 1.63714 6.2207 1.68066C8.06206 1.72818 9.9505 1.79636 11.7676 1.74512L11.7666 1.74414C12.7848 1.71556 13.8862 1.559 14.8926 1.45605C15.4672 1.39728 16.0276 1.35517 16.5732 1.35059Z" fill="#F6E9D9" fill-opacity="0.01" stroke="#F6E9D9" stroke-width="1.5"/>
<path d="M22.998 24.5562C22.9697 24.5875 22.9386 24.6254 22.9004 24.6655C22.7295 24.8452 22.4923 25.0777 22.2432 25.3062C22.0434 25.4894 21.8421 25.6591 21.6699 25.7964L17.4531 20.8989C17.8491 20.4696 18.3029 20.0805 18.7949 19.6753C19.4386 19.1451 20.1686 18.5729 20.8037 17.8882L20.8047 17.8872C21.3119 17.3386 21.7837 16.626 22.2012 15.9995C22.4887 15.568 22.7514 15.1813 22.998 14.8608V24.5562Z" fill="#F6E9D9" fill-opacity="0.01" stroke="#F6E9D9" stroke-width="1.5"/>
<path d="M33.9785 95.5649C33.3501 96.3228 32.2942 97.5788 31.1973 98.6157C30.4766 99.2969 29.8039 99.8179 29.2764 100.054C29.0186 100.17 28.8672 100.184 28.7979 100.176L28.7656 90.2358L33.9785 95.5649Z" fill="#F6E9D9" fill-opacity="0.01" stroke="#F6E9D9" stroke-width="1.5"/>
</svg>
